<svg version="1.1" id="Layer_1" xmlns="http://www.w3.org/2000/svg" xmlns:xlink="http://www.w3.org/1999/xlink" x="0px" y="0px"
	 width="100%" viewBox="0 0 488 411" enable-background="new 0 0 488 411" xml:space="preserve">
<path fill="#000000" opacity="1.000000" stroke="none" 
	d="
M58.000004,412.000000 
	C52.977909,412.000000 47.955814,412.000000 42.355919,411.587097 
	C41.391491,407.276947 41.004864,403.379730 40.594349,399.241638 
	C37.700199,400.124146 35.098675,401.199097 32.391438,401.684540 
	C26.673695,402.709747 21.404322,401.594208 17.512211,396.947968 
	C13.826187,392.547760 13.067278,387.515564 15.072948,382.072998 
	C17.939283,374.294861 26.405003,371.253540 35.937195,374.387787 
	C37.371479,374.859406 39.176121,374.204651 40.809452,374.070923 
	C40.288361,371.046265 40.620049,365.963348 39.105743,365.335907 
	C30.257263,361.669891 20.900112,361.460144 12.372620,366.335297 
	C8.127429,368.762177 4.762904,372.729492 1.000000,376.000000 
	C1.000000,251.114456 1.000000,126.228928 1.000000,1.000000 
	C35.020123,1.000000 69.041405,1.000000 103.531342,1.468657 
	C104.000015,36.425694 104.039024,70.914192 103.931541,105.402237 
	C103.922188,108.403030 104.692284,109.911423 107.529518,111.335938 
	C128.386765,121.807877 149.952652,130.403244 172.670197,135.791245 
	C186.377701,139.042297 200.314636,141.039154 214.593979,139.729630 
	C209.532700,113.102486 204.508011,86.667831 199.482117,60.226875 
	C232.186966,60.226875 264.467926,60.226875 296.729340,60.226875 
	C292.250641,86.870094 287.808502,113.295807 283.239624,140.475586 
	C292.365448,139.964401 301.030182,140.090286 309.496338,138.855042 
	C320.894379,137.192017 332.625244,135.809494 343.332581,131.896591 
	C358.245789,126.446686 372.289001,118.643570 386.832855,112.134277 
	C390.093994,110.674706 391.090240,108.935120 391.077545,105.464149 
	C390.950012,70.643135 391.000000,35.821476 391.000000,1.000000 
	C423.636505,1.000000 456.272980,1.000000 489.000000,1.000000 
	C489.000000,126.020882 489.000000,251.041779 488.646362,376.613464 
	C478.503601,364.850739 462.026550,360.114227 445.000000,364.982239 
	C445.000000,380.565002 445.000000,396.282501 445.000000,412.000000 
	C443.611115,412.000000 442.222198,412.000000 440.326294,411.546967 
	C439.819244,407.857819 439.819244,404.621674 439.819244,400.769897 
	C433.205566,400.769897 427.312378,400.769897 420.829102,400.769897 
	C420.829102,388.262939 420.829102,376.378479 420.829102,364.376831 
	C416.321228,364.376831 412.434814,364.376831 408.000000,364.376831 
	C408.000000,380.498444 408.000000,396.249207 408.000000,412.000000 
	C405.958344,412.000000 403.916656,412.000000 401.347107,411.546967 
	C400.819244,407.853455 400.819244,404.612976 400.819244,400.756165 
	C393.511383,400.756165 386.931732,400.756165 380.436279,400.756165 
	C380.436279,397.552856 380.436279,394.989899 380.436279,391.805359 
	C386.761658,391.805359 392.669403,391.805359 398.590179,391.805359 
	C398.590179,388.266998 398.590179,385.372070 398.590179,381.858826 
	C392.285919,381.858826 386.377533,381.858826 380.381653,381.858826 
	C380.381653,378.995148 380.381653,376.765717 380.381653,373.906921 
	C386.974823,373.906921 393.216217,373.906921 399.645721,373.906921 
	C399.645721,370.375000 399.645721,367.481354 399.645721,364.344391 
	C388.734894,364.344391 378.177063,364.344391 367.000000,364.344391 
	C367.000000,380.454163 367.000000,396.227081 367.000000,412.000000 
	C364.629425,412.000000 362.258881,412.000000 359.356445,411.537933 
	C358.824585,395.537292 358.824585,379.998718 358.824585,364.393982 
	C354.280914,364.393982 350.397064,364.393982 346.000000,364.393982 
	C346.000000,380.521637 346.000000,396.260834 346.000000,412.000000 
	C343.629425,412.000000 341.258881,412.000000 338.356445,411.537933 
	C337.824585,395.517273 337.824585,379.958649 337.824585,364.430237 
	C333.217072,364.430237 329.328064,364.430237 324.812622,364.430237 
	C324.812622,370.412933 324.812622,375.976929 324.812622,381.602600 
	C319.947144,381.602600 315.726898,381.602600 310.877625,381.602600 
	C310.877625,375.653748 310.877625,370.088654 310.877625,364.364624 
	C306.350006,364.364624 302.461639,364.364624 298.000000,364.364624 
	C298.000000,380.481873 298.000000,396.240936 298.000000,412.000000 
	C293.310760,412.000000 288.621490,412.000000 283.384705,411.645172 
	C283.443481,410.769531 283.989319,410.147552 284.665344,409.743408 
	C292.200043,405.238983 295.108154,394.810608 289.373016,388.491577 
	C286.095184,384.880005 280.326996,383.591125 275.832733,380.992432 
	C273.851562,379.846832 272.249969,378.044708 270.476044,376.540649 
	C272.680817,375.363068 274.842651,373.316528 277.100067,373.205017 
	C280.779877,373.023254 284.522064,374.104797 288.486664,374.689972 
	C288.891083,371.920959 289.415283,369.199036 289.602936,366.454102 
	C289.651520,365.743164 288.752472,364.418427 288.108765,364.292053 
	C279.421417,362.586151 270.650330,361.467560 262.559601,366.292694 
	C255.709793,370.377716 254.259430,381.267517 260.276855,386.480865 
	C263.999786,389.706451 269.157623,391.222321 273.424988,393.898468 
	C275.227356,395.028748 276.396027,397.169556 277.852722,398.851044 
	C275.792053,399.898560 273.705841,401.862457 271.675934,401.805878 
	C267.224579,401.681854 262.801758,400.534393 258.309509,399.795319 
	C257.875946,403.836060 257.437988,407.918030 257.000000,412.000000 
	C251.311966,412.000000 245.623917,412.000000 239.385834,411.646362 
	C240.656342,409.927643 242.648849,408.739624 244.268219,407.167267 
	C251.899139,399.758057 253.022247,390.731995 251.090668,380.699493 
	C249.501205,372.443848 245.193344,366.630096 237.210266,364.296417 
	C228.497955,361.749573 219.958649,362.144196 212.350571,368.122894 
	C202.886047,375.560333 202.954468,395.591583 208.951981,403.340485 
	C211.354126,406.444122 214.301056,409.126099 217.000000,412.000000 
	C204.312439,412.000000 191.624878,412.000000 178.380798,411.538696 
	C177.824265,405.834717 177.824265,400.592102 177.824265,394.992096 
	C181.894241,394.992096 184.880737,395.090393 187.858627,394.972015 
	C194.408539,394.711578 200.409607,389.471558 200.976334,383.639832 
	C202.026062,372.837830 199.225479,366.679688 191.159363,365.360138 
	C182.779160,363.989166 174.158356,364.089050 165.000000,363.504700 
	C165.000000,380.474762 165.000000,396.237396 165.000000,412.000000 
	C162.629440,412.000000 160.258896,412.000000 157.356461,411.537933 
	C156.824585,395.518829 156.824585,379.961792 156.824585,364.000763 
	C151.474686,364.000763 146.817795,364.256775 142.203629,363.922607 
	C138.270081,363.637726 136.863068,365.262299 135.899490,368.911316 
	C133.780945,376.934296 131.079636,384.803406 128.616211,392.735321 
	C125.047333,384.386475 122.601578,376.096558 119.903809,367.889496 
	C119.424919,366.432648 117.964401,364.294281 116.843414,364.221466 
	C111.103882,363.848572 105.327103,364.048950 99.000000,364.048950 
	C99.000000,380.482910 99.000000,396.241455 99.000000,412.000000 
	C93.311958,412.000000 87.623917,412.000000 81.381912,411.649323 
	C89.509270,405.257446 93.578003,397.050079 93.050583,386.392426 
	C92.614799,377.586548 90.095085,369.781525 81.853470,365.655304 
	C73.419754,361.432861 64.653976,361.912598 56.128689,366.285645 
	C43.033901,373.002502 42.921219,399.205048 53.496651,407.266693 
	C55.206741,408.570312 56.509151,410.408752 58.000004,412.000000 
M211.030609,188.531006 
	C204.376419,187.690720 197.631638,187.286530 191.085434,185.926498 
	C173.112305,182.192444 155.099365,178.530411 137.344543,173.908722 
	C126.111198,170.984634 115.312057,166.392456 104.250885,162.524902 
	C104.250885,211.419815 104.250885,260.487854 104.250885,309.706055 
	C199.881989,309.706055 295.261963,309.706055 390.820831,309.706055 
	C390.820831,260.505493 390.820831,211.598846 390.820831,162.220398 
	C352.115082,181.363068 310.933990,187.927887 268.450287,189.361420 
	C262.046875,213.759293 255.610962,238.280991 248.817673,264.164307 
	C242.175827,238.126160 235.929413,213.638168 229.625702,188.925568 
	C223.526093,188.925568 217.706085,188.925568 211.030609,188.531006 
z"/>
<path fill="#9E9C9C" opacity="1.000000" stroke="none" 
	d="
M390.531342,1.000000 
	C391.000000,35.821476 390.950012,70.643135 391.077545,105.464149 
	C391.090240,108.935120 390.093994,110.674706 386.832855,112.134277 
	C372.289001,118.643570 358.245789,126.446686 343.332581,131.896591 
	C332.625244,135.809494 320.894379,137.192017 309.496338,138.855042 
	C301.030182,140.090286 292.365448,139.964401 283.239624,140.475586 
	C287.808502,113.295807 292.250641,86.870094 296.729340,60.226875 
	C264.467926,60.226875 232.186966,60.226875 199.482117,60.226875 
	C204.508011,86.667831 209.532700,113.102486 214.593979,139.729630 
	C200.314636,141.039154 186.377701,139.042297 172.670197,135.791245 
	C149.952652,130.403244 128.386765,121.807877 107.529518,111.335938 
	C104.692284,109.911423 103.922188,108.403030 103.931541,105.402237 
	C104.039024,70.914192 104.000015,36.425694 104.000000,1.468657 
	C199.354233,1.000000 294.708466,1.000000 390.531342,1.000000 
z"/>
<path fill="#565656" opacity="1.000000" stroke="none" 
	d="
M99.460632,412.000000 
	C99.000000,396.241455 99.000000,380.482910 99.000000,364.048950 
	C105.327103,364.048950 111.103882,363.848572 116.843414,364.221466 
	C117.964401,364.294281 119.424919,366.432648 119.903809,367.889496 
	C122.601578,376.096558 125.047333,384.386475 128.616211,392.735321 
	C131.079636,384.803406 133.780945,376.934296 135.899490,368.911316 
	C136.863068,365.262299 138.270081,363.637726 142.203629,363.922607 
	C146.817795,364.256775 151.474686,364.000763 156.824585,364.000763 
	C156.824585,379.961792 156.824585,395.518829 156.912292,411.537933 
	C152.975449,412.000000 148.950912,412.000000 144.550888,411.537933 
	C144.175415,401.886292 144.175415,392.696747 144.175415,383.507172 
	C143.470123,383.448059 142.764847,383.388947 142.059555,383.329865 
	C139.373047,392.886566 136.686523,402.443298 134.000000,412.000000 
	C129.975464,412.000000 125.950912,412.000000 121.575119,411.607300 
	C118.372162,401.912903 115.520454,392.611176 112.668739,383.309418 
	C112.112495,383.387360 111.556244,383.465271 111.000000,383.543182 
	C111.000000,393.028809 111.000000,402.514404 111.000000,412.000000 
	C107.307091,412.000000 103.614182,412.000000 99.460632,412.000000 
z"/>
<path fill="#565656" opacity="1.000000" stroke="none" 
	d="
M445.468658,412.000000 
	C445.000000,396.282501 445.000000,380.565002 445.000000,364.982239 
	C462.026550,360.114227 478.503601,364.850739 488.646362,377.082123 
	C489.000000,384.020966 489.000000,391.041901 488.651978,398.571716 
	C484.286011,404.240570 480.066284,409.130371 473.242767,410.668152 
	C473.070526,410.707001 473.076904,411.538300 473.000000,412.000000 
	C463.979095,412.000000 454.958221,412.000000 445.468658,412.000000 
M469.696045,399.627777 
	C476.218689,393.595764 477.643097,387.746185 474.295990,380.737213 
	C471.792938,375.495758 466.065216,373.237854 458.397461,374.626892 
	C458.397461,383.232056 458.397461,391.884521 458.397461,401.369629 
	C462.245148,400.835205 465.598572,400.369446 469.696045,399.627777 
z"/>
<path fill="#565656" opacity="1.000000" stroke="none" 
	d="
M58.468628,412.000000 
	C56.509151,410.408752 55.206741,408.570312 53.496651,407.266693 
	C42.921219,399.205048 43.033901,373.002502 56.128689,366.285645 
	C64.653976,361.912598 73.419754,361.432861 81.853470,365.655304 
	C90.095085,369.781525 92.614799,377.586548 93.050583,386.392426 
	C93.578003,397.050079 89.509270,405.257446 80.913979,411.649323 
	C73.645752,412.000000 66.291496,412.000000 58.468628,412.000000 
M79.928986,388.403778 
	C79.297310,385.524445 79.382431,382.161774 77.850273,379.889679 
	C75.987206,377.126831 72.871384,373.680084 70.094460,373.489655 
	C67.285225,373.296997 62.962818,376.044647 61.541855,378.701599 
	C58.554276,384.287781 58.408154,390.630066 61.306812,396.699127 
	C62.971317,400.184204 65.490883,402.019440 69.455627,402.029633 
	C73.407776,402.039795 76.180489,400.363342 77.592560,396.752838 
	C78.542137,394.324921 79.097458,391.742798 79.928986,388.403778 
z"/>
<path fill="#565656" opacity="1.000000" stroke="none" 
	d="
M217.468567,412.000000 
	C214.301056,409.126099 211.354126,406.444122 208.951981,403.340485 
	C202.954468,395.591583 202.886047,375.560333 212.350571,368.122894 
	C219.958649,362.144196 228.497955,361.749573 237.210266,364.296417 
	C245.193344,366.630096 249.501205,372.443848 251.090668,380.699493 
	C253.022247,390.731995 251.899139,399.758057 244.268219,407.167267 
	C242.648849,408.739624 240.656342,409.927643 238.917877,411.646362 
	C231.979050,412.000000 224.958099,412.000000 217.468567,412.000000 
M221.892670,376.363281 
	C217.254807,382.701355 216.822495,389.363953 220.161270,396.428070 
	C221.896469,400.099335 224.461411,402.085876 228.674820,402.033661 
	C233.011429,401.979858 235.647095,399.328949 236.742691,395.862549 
	C237.858505,392.332153 237.970657,388.374329 237.930130,384.610046 
	C237.824646,374.817780 230.535797,370.764313 221.892670,376.363281 
z"/>
<path fill="#565656" opacity="1.000000" stroke="none" 
	d="
M298.463196,412.000000 
	C298.000000,396.240936 298.000000,380.481873 298.000000,364.364624 
	C302.461639,364.364624 306.350006,364.364624 310.877625,364.364624 
	C310.877625,370.088654 310.877625,375.653748 310.877625,381.602600 
	C315.726898,381.602600 319.947144,381.602600 324.812622,381.602600 
	C324.812622,375.976929 324.812622,370.412933 324.812622,364.430237 
	C329.328064,364.430237 333.217072,364.430237 337.824585,364.430237 
	C337.824585,379.958649 337.824585,395.517273 337.912292,411.537933 
	C333.975464,412.000000 329.950897,412.000000 325.550903,411.538147 
	C325.175446,404.861420 325.175446,398.646576 325.175446,392.385864 
	C319.941162,392.385864 315.735321,392.385864 311.000000,392.385864 
	C311.000000,399.174866 311.000000,405.587433 311.000000,412.000000 
	C306.975464,412.000000 302.950897,412.000000 298.463196,412.000000 
z"/>
<path fill="#565656" opacity="1.000000" stroke="none" 
	d="
M367.468658,412.000000 
	C367.000000,396.227081 367.000000,380.454163 367.000000,364.344391 
	C378.177063,364.344391 388.734894,364.344391 399.645721,364.344391 
	C399.645721,367.481354 399.645721,370.375000 399.645721,373.906921 
	C393.216217,373.906921 386.974823,373.906921 380.381653,373.906921 
	C380.381653,376.765717 380.381653,378.995148 380.381653,381.858826 
	C386.377533,381.858826 392.285919,381.858826 398.590179,381.858826 
	C398.590179,385.372070 398.590179,388.266998 398.590179,391.805359 
	C392.669403,391.805359 386.761658,391.805359 380.436279,391.805359 
	C380.436279,394.989899 380.436279,397.552856 380.436279,400.756165 
	C386.931732,400.756165 393.511383,400.756165 400.819244,400.756165 
	C400.819244,404.612976 400.819244,407.853455 400.909607,411.546967 
	C389.979095,412.000000 378.958221,412.000000 367.468658,412.000000 
z"/>
<path fill="#565656" opacity="1.000000" stroke="none" 
	d="
M257.468658,412.000000 
	C257.437988,407.918030 257.875946,403.836060 258.309509,399.795319 
	C262.801758,400.534393 267.224579,401.681854 271.675934,401.805878 
	C273.705841,401.862457 275.792053,399.898560 277.852722,398.851044 
	C276.396027,397.169556 275.227356,395.028748 273.424988,393.898468 
	C269.157623,391.222321 263.999786,389.706451 260.276855,386.480865 
	C254.259430,381.267517 255.709793,370.377716 262.559601,366.292694 
	C270.650330,361.467560 279.421417,362.586151 288.108765,364.292053 
	C288.752472,364.418427 289.651520,365.743164 289.602936,366.454102 
	C289.415283,369.199036 288.891083,371.920959 288.486664,374.689972 
	C284.522064,374.104797 280.779877,373.023254 277.100067,373.205017 
	C274.842651,373.316528 272.680817,375.363068 270.476044,376.540649 
	C272.249969,378.044708 273.851562,379.846832 275.832733,380.992432 
	C280.326996,383.591125 286.095184,384.880005 289.373016,388.491577 
	C295.108154,394.810608 292.200043,405.238983 284.665344,409.743408 
	C283.989319,410.147552 283.443481,410.769531 282.918579,411.645172 
	C274.645782,412.000000 266.291534,412.000000 257.468658,412.000000 
z"/>
<path fill="#565656" opacity="1.000000" stroke="none" 
	d="
M165.463181,412.000000 
	C165.000000,396.237396 165.000000,380.474762 165.000000,363.504700 
	C174.158356,364.089050 182.779160,363.989166 191.159363,365.360138 
	C199.225479,366.679688 202.026062,372.837830 200.976334,383.639832 
	C200.409607,389.471558 194.408539,394.711578 187.858627,394.972015 
	C184.880737,395.090393 181.894241,394.992096 177.824265,394.992096 
	C177.824265,400.592102 177.824265,405.834717 177.912140,411.538696 
	C173.975449,412.000000 169.950912,412.000000 165.463181,412.000000 
M187.844498,378.834625 
	C186.261749,374.119598 183.011063,373.093597 178.431702,374.562927 
	C178.431702,378.320709 178.431702,381.983124 178.431702,385.596680 
	C185.192276,386.265167 186.504349,385.392975 187.844498,378.834625 
z"/>
<path fill="#565656" opacity="1.000000" stroke="none" 
	d="
M1.000000,376.468628 
	C4.762904,372.729492 8.127429,368.762177 12.372620,366.335297 
	C20.900112,361.460144 30.257263,361.669891 39.105743,365.335907 
	C40.620049,365.963348 40.288361,371.046265 40.809452,374.070923 
	C39.176121,374.204651 37.371479,374.859406 35.937195,374.387787 
	C26.405003,371.253540 17.939283,374.294861 15.072948,382.072998 
	C13.067278,387.515564 13.826187,392.547760 17.512211,396.947968 
	C21.404322,401.594208 26.673695,402.709747 32.391438,401.684540 
	C35.098675,401.199097 37.700199,400.124146 40.594349,399.241638 
	C41.004864,403.379730 41.391491,407.276947 41.889057,411.587097 
	C33.312439,412.000000 24.624874,412.000000 15.547873,411.644135 
	C11.027091,407.432373 6.909341,403.561646 2.744344,399.742432 
	C2.305189,399.339783 1.588129,399.240204 0.999999,399.000000 
	C1.000000,391.645752 1.000000,384.291504 1.000000,376.468628 
z"/>
<path fill="#565656" opacity="1.000000" stroke="none" 
	d="
M408.468658,412.000000 
	C408.000000,396.249207 408.000000,380.498444 408.000000,364.376831 
	C412.434814,364.376831 416.321228,364.376831 420.829102,364.376831 
	C420.829102,376.378479 420.829102,388.262939 420.829102,400.769897 
	C427.312378,400.769897 433.205566,400.769897 439.819244,400.769897 
	C439.819244,404.621674 439.819244,407.857819 439.909607,411.546967 
	C429.645782,412.000000 419.291534,412.000000 408.468658,412.000000 
z"/>
<path fill="#565656" opacity="1.000000" stroke="none" 
	d="
M346.463196,412.000000 
	C346.000000,396.260834 346.000000,380.521637 346.000000,364.393982 
	C350.397064,364.393982 354.280914,364.393982 358.824585,364.393982 
	C358.824585,379.998718 358.824585,395.537292 358.912292,411.537933 
	C354.975464,412.000000 350.950897,412.000000 346.463196,412.000000 
z"/>
<path fill="#000000" opacity="1.000000" stroke="none" 
	d="
M311.464661,412.000000 
	C311.000000,405.587433 311.000000,399.174866 311.000000,392.385864 
	C315.735321,392.385864 319.941162,392.385864 325.175446,392.385864 
	C325.175446,398.646576 325.175446,404.861420 325.087708,411.538147 
	C320.643097,412.000000 316.286194,412.000000 311.464661,412.000000 
z"/>
<path fill="#000000" opacity="1.000000" stroke="none" 
	d="
M111.454109,412.000000 
	C111.000000,402.514404 111.000000,393.028809 111.000000,383.543182 
	C111.556244,383.465271 112.112495,383.387360 112.668739,383.309418 
	C115.520454,392.611176 118.372162,401.912903 121.111938,411.607300 
	C117.969406,412.000000 114.938812,412.000000 111.454109,412.000000 
z"/>
<path fill="#000000" opacity="1.000000" stroke="none" 
	d="
M134.454102,412.000000 
	C136.686523,402.443298 139.373047,392.886566 142.059555,383.329865 
	C142.764847,383.388947 143.470123,383.448059 144.175415,383.507172 
	C144.175415,392.696747 144.175415,401.886292 144.087708,411.537933 
	C140.969406,412.000000 137.938812,412.000000 134.454102,412.000000 
z"/>
<path fill="#000000" opacity="1.000000" stroke="none" 
	d="
M473.471191,412.000000 
	C473.076904,411.538300 473.070526,410.707001 473.242767,410.668152 
	C480.066284,409.130371 484.286011,404.240570 488.651978,399.040283 
	C489.000000,403.266052 489.000000,407.532135 489.000000,412.000000 
	C483.981995,412.000000 478.962189,412.000000 473.471191,412.000000 
z"/>
<path fill="#000000" opacity="1.000000" stroke="none" 
	d="
M0.999999,399.476654 
	C1.588129,399.240204 2.305189,399.339783 2.744344,399.742432 
	C6.909341,403.561646 11.027091,407.432373 15.079217,411.644135 
	C10.413161,412.000000 5.826322,412.000000 1.000000,412.000000 
	C1.000000,407.986389 1.000000,403.969849 0.999999,399.476654 
z"/>
<path fill="#9E9C9C" opacity="1.000000" stroke="none" 
	d="
M211.458344,188.728287 
	C217.706085,188.925568 223.526093,188.925568 229.625702,188.925568 
	C235.929413,213.638168 242.175827,238.126160 248.817673,264.164307 
	C255.610962,238.280991 262.046875,213.759293 268.450287,189.361420 
	C310.933990,187.927887 352.115082,181.363068 390.820831,162.220398 
	C390.820831,211.598846 390.820831,260.505493 390.820831,309.706055 
	C295.261963,309.706055 199.881989,309.706055 104.250885,309.706055 
	C104.250885,260.487854 104.250885,211.419815 104.250885,162.524902 
	C115.312057,166.392456 126.111198,170.984634 137.344543,173.908722 
	C155.099365,178.530411 173.112305,182.192444 191.085434,185.926498 
	C197.631638,187.286530 204.376419,187.690720 211.458344,188.728287 
z"/>
<path fill="#000000" opacity="1.000000" stroke="none" 
	d="
M469.324036,399.765747 
	C465.598572,400.369446 462.245148,400.835205 458.397461,401.369629 
	C458.397461,391.884521 458.397461,383.232056 458.397461,374.626892 
	C466.065216,373.237854 471.792938,375.495758 474.295990,380.737213 
	C477.643097,387.746185 476.218689,393.595764 469.324036,399.765747 
z"/>
<path fill="#000000" opacity="1.000000" stroke="none" 
	d="
M79.879074,388.816711 
	C79.097458,391.742798 78.542137,394.324921 77.592560,396.752838 
	C76.180489,400.363342 73.407776,402.039795 69.455627,402.029633 
	C65.490883,402.019440 62.971317,400.184204 61.306812,396.699127 
	C58.408154,390.630066 58.554276,384.287781 61.541855,378.701599 
	C62.962818,376.044647 67.285225,373.296997 70.094460,373.489655 
	C72.871384,373.680084 75.987206,377.126831 77.850273,379.889679 
	C79.382431,382.161774 79.297310,385.524445 79.879074,388.816711 
z"/>
<path fill="#000000" opacity="1.000000" stroke="none" 
	d="
M222.055084,376.018066 
	C230.535797,370.764313 237.824646,374.817780 237.930130,384.610046 
	C237.970657,388.374329 237.858505,392.332153 236.742691,395.862549 
	C235.647095,399.328949 233.011429,401.979858 228.674820,402.033661 
	C224.461411,402.085876 221.896469,400.099335 220.161270,396.428070 
	C216.822495,389.363953 217.254807,382.701355 222.055084,376.018066 
z"/>
<path fill="#000000" opacity="1.000000" stroke="none" 
	d="
M187.890472,379.221130 
	C186.504349,385.392975 185.192276,386.265167 178.431702,385.596680 
	C178.431702,381.983124 178.431702,378.320709 178.431702,374.562927 
	C183.011063,373.093597 186.261749,374.119598 187.890472,379.221130 
z"/>
</svg>