<svg version="1.1" id="Layer_1" xmlns="http://www.w3.org/2000/svg" xmlns:xlink="http://www.w3.org/1999/xlink" x="0px" y="0px"
	 width="100%" viewBox="0 0 488 411" enable-background="new 0 0 488 411" xml:space="preserve">
<path fill="#000000" opacity="1.000000" stroke="none" 
	d="
M391.000000,1.000000 
	C423.657227,1.000000 456.314423,1.000000 488.978760,0.999999 
	C488.985840,137.950912 488.985840,274.901825 488.985840,411.926361 
	C326.429504,411.926361 163.858978,411.926361 1.144227,411.926361 
	C1.144227,275.000092 1.144227,138.000076 1.144227,1.000000 
	C35.082554,1.000000 69.072617,1.000000 103.531479,1.468657 
	C104.000298,36.093956 103.981720,70.250648 104.059601,104.407104 
	C104.063202,105.986412 104.431870,108.280327 105.485489,109.014618 
	C109.475578,111.795387 113.635094,114.478813 118.061157,116.462524 
	C135.569031,124.309334 153.392807,131.322449 172.176605,135.609161 
	C185.817734,138.722229 199.532516,140.909515 214.545563,139.686844 
	C209.491196,112.996490 204.495071,86.613632 199.495010,60.210022 
	C232.160690,60.210022 264.452179,60.210022 296.713898,60.210022 
	C292.273590,86.718666 287.866760,113.027664 283.269531,140.473190 
	C292.770081,139.941147 301.228851,140.074188 309.488892,138.857666 
	C320.886200,137.179138 332.619873,135.813126 343.327667,131.900223 
	C358.241394,126.450394 372.284821,118.646301 386.828369,112.134926 
	C390.084869,110.676941 391.091034,108.944710 391.078186,105.468811 
	C390.949493,70.646248 391.000000,35.823032 391.000000,1.000000 
M106.907028,163.452667 
	C106.566299,163.620880 106.225571,163.789108 105.170128,164.335098 
	C104.780121,166.027145 104.051781,167.718735 104.049469,169.411301 
	C103.987503,214.765198 104.000099,260.119171 104.000519,305.473145 
	C104.000526,306.303802 103.670311,307.425018 104.082611,307.901306 
	C104.817879,308.750763 106.003311,309.210602 107.928421,309.973907 
	C202.187042,309.973907 296.445679,309.973907 390.669189,309.973907 
	C390.837494,308.881104 390.975708,308.402100 390.975861,307.923035 
	C390.990479,261.090973 390.994690,214.258896 390.999420,167.426819 
	C390.999451,167.093491 390.997345,166.760178 390.996735,166.426849 
	C390.991577,163.553986 390.150208,162.462219 387.082825,163.938095 
	C370.458374,171.937012 353.151276,178.040588 335.001068,181.439072 
	C321.856995,183.900177 308.659088,186.189743 295.398315,187.870346 
	C286.567352,188.989532 277.583435,188.901993 268.446533,189.365799 
	C262.054382,213.726212 255.619446,238.249619 248.815079,264.180939 
	C242.172318,238.127777 235.931244,213.650024 229.699020,189.207031 
	C192.401703,188.884613 156.813889,181.091660 121.341393,168.843384 
	C119.560829,168.284470 117.780266,167.725555 115.605057,166.994354 
	C115.345238,166.871445 115.093330,166.734039 114.272095,166.086029 
	C112.862000,165.685669 111.451904,165.285309 109.727394,164.284729 
	C108.840393,164.160019 107.953400,164.035309 107.030853,163.963989 
	C107.030853,163.963989 107.090820,163.941498 106.907028,163.452667 
z"/>
<path fill="#9E9C9C" opacity="1.000000" stroke="none" 
	d="
M390.531342,1.000000 
	C391.000000,35.823032 390.949493,70.646248 391.078186,105.468811 
	C391.091034,108.944710 390.084869,110.676941 386.828369,112.134926 
	C372.284821,118.646301 358.241394,126.450394 343.327667,131.900223 
	C332.619873,135.813126 320.886200,137.179138 309.488892,138.857666 
	C301.228851,140.074188 292.770081,139.941147 283.269531,140.473190 
	C287.866760,113.027664 292.273590,86.718666 296.713898,60.210022 
	C264.452179,60.210022 232.160690,60.210022 199.495010,60.210022 
	C204.495071,86.613632 209.491196,112.996490 214.545563,139.686844 
	C199.532516,140.909515 185.817734,138.722229 172.176605,135.609161 
	C153.392807,131.322449 135.569031,124.309334 118.061157,116.462524 
	C113.635094,114.478813 109.475578,111.795387 105.485489,109.014618 
	C104.431870,108.280327 104.063202,105.986412 104.059601,104.407104 
	C103.981720,70.250648 104.000298,36.093956 104.000137,1.468657 
	C199.354233,1.000000 294.708466,1.000000 390.531342,1.000000 
z"/>
<path fill="#9E9C9C" opacity="1.000000" stroke="none" 
	d="
M107.066399,163.910599 
	C107.953400,164.035309 108.840393,164.160019 110.069809,164.926529 
	C111.891258,165.906265 113.370293,166.244202 114.849327,166.582123 
	C115.093330,166.734039 115.345238,166.871445 115.846489,167.433167 
	C117.367340,171.459229 119.309105,172.021484 121.999138,169.166290 
	C156.813889,181.091660 192.401703,188.884613 229.699020,189.207031 
	C235.931244,213.650024 242.172318,238.127777 248.815079,264.180939 
	C255.619446,238.249619 262.054382,213.726212 268.446533,189.365799 
	C277.583435,188.901993 286.567352,188.989532 295.398315,187.870346 
	C308.659088,186.189743 321.856995,183.900177 335.001068,181.439072 
	C353.151276,178.040588 370.458374,171.937012 387.082825,163.938095 
	C390.150208,162.462219 390.991577,163.553986 390.996735,166.426849 
	C390.997345,166.760178 390.999451,167.093491 390.999420,167.426819 
	C390.994690,214.258896 390.990479,261.090973 390.975861,307.923035 
	C390.975708,308.402100 390.837494,308.881104 390.669189,309.973907 
	C296.445679,309.973907 202.187042,309.973907 107.464348,309.445557 
	C107.022316,260.581696 107.044357,212.246140 107.066399,163.910599 
z"/>
<path fill="#9E9C9C" opacity="1.000000" stroke="none" 
	d="
M107.048630,163.937286 
	C107.044357,212.246140 107.022316,260.581696 107.000381,309.375305 
	C106.003311,309.210602 104.817879,308.750763 104.082611,307.901306 
	C103.670311,307.425018 104.000526,306.303802 104.000519,305.473145 
	C104.000099,260.119171 103.987503,214.765198 104.049469,169.411301 
	C104.051781,167.718735 104.780121,166.027145 105.829094,164.150284 
	C106.688988,163.957474 106.889908,163.949478 107.090820,163.941498 
	C107.090820,163.941498 107.030853,163.963989 107.048630,163.937286 
z"/>
<path fill="#9E9C9C" opacity="1.000000" stroke="none" 
	d="
M121.670265,169.004837 
	C119.309105,172.021484 117.367340,171.459229 116.043808,167.519318 
	C117.780266,167.725555 119.560829,168.284470 121.670265,169.004837 
z"/>
<path fill="#9E9C9C" opacity="1.000000" stroke="none" 
	d="
M114.560715,166.334076 
	C113.370293,166.244202 111.891258,165.906265 110.227020,165.226639 
	C111.451904,165.285309 112.862000,165.685669 114.560715,166.334076 
z"/>
<path fill="#9E9C9C" opacity="1.000000" stroke="none" 
	d="
M106.998924,163.697083 
	C106.889908,163.949478 106.688988,163.957474 106.186455,163.961395 
	C106.225571,163.789108 106.566299,163.620880 106.998924,163.697083 
z"/>
</svg>